<mxfile host="app.diagrams.net" agent="Mozilla/5.0 (Macintosh; Intel Mac OS X 10_15_7) AppleWebKit/537.36 (KHTML, like Gecko) Chrome/133.0.0.0 Safari/537.36" version="26.0.15">
  <diagram name="Page-1" id="55a83fd1-7818-8e21-69c5-c3457e3827bb">
    <mxGraphModel dx="1042" dy="1318" grid="1" gridSize="10" guides="1" tooltips="1" connect="1" arrows="1" fold="1" page="1" pageScale="1" pageWidth="1100" pageHeight="850" background="none" math="0" shadow="0">
      <root>
        <mxCell id="0" />
        <mxCell id="1" parent="0" />
        <mxCell id="3XikPz8lAOBjo_jehN1o-64" value="" style="group" vertex="1" connectable="0" parent="1">
          <mxGeometry x="300" y="220" width="320" height="480" as="geometry" />
        </mxCell>
        <mxCell id="3XikPz8lAOBjo_jehN1o-31" value="" style="group" vertex="1" connectable="0" parent="3XikPz8lAOBjo_jehN1o-64">
          <mxGeometry width="320" height="480" as="geometry" />
        </mxCell>
        <mxCell id="3XikPz8lAOBjo_jehN1o-26" value="" style="group" vertex="1" connectable="0" parent="3XikPz8lAOBjo_jehN1o-31">
          <mxGeometry width="320" height="215" as="geometry" />
        </mxCell>
        <mxCell id="3XikPz8lAOBjo_jehN1o-19" value="" style="sketch=0;pointerEvents=1;shadow=0;dashed=0;html=1;strokeColor=none;labelPosition=center;verticalLabelPosition=bottom;verticalAlign=top;outlineConnect=0;align=center;shape=mxgraph.office.servers.physical_host;fillColor=#2072B8;" vertex="1" parent="3XikPz8lAOBjo_jehN1o-26">
          <mxGeometry x="97.88" y="90" width="54.25" height="120" as="geometry" />
        </mxCell>
        <mxCell id="3XikPz8lAOBjo_jehN1o-20" value="" style="sketch=0;pointerEvents=1;shadow=0;dashed=0;html=1;strokeColor=none;labelPosition=center;verticalLabelPosition=bottom;verticalAlign=top;outlineConnect=0;align=center;shape=mxgraph.office.servers.physical_host;fillColor=#2072B8;" vertex="1" parent="3XikPz8lAOBjo_jehN1o-26">
          <mxGeometry y="90" width="54.25" height="120" as="geometry" />
        </mxCell>
        <mxCell id="3XikPz8lAOBjo_jehN1o-21" value="" style="sketch=0;pointerEvents=1;shadow=0;dashed=0;html=1;strokeColor=none;labelPosition=center;verticalLabelPosition=bottom;verticalAlign=top;outlineConnect=0;align=center;shape=mxgraph.office.servers.physical_host;fillColor=#2072B8;" vertex="1" parent="3XikPz8lAOBjo_jehN1o-26">
          <mxGeometry x="190" y="90" width="54.25" height="120" as="geometry" />
        </mxCell>
        <mxCell id="3XikPz8lAOBjo_jehN1o-25" value="" style="group" vertex="1" connectable="0" parent="3XikPz8lAOBjo_jehN1o-26">
          <mxGeometry x="90" width="70" height="90" as="geometry" />
        </mxCell>
        <mxCell id="3XikPz8lAOBjo_jehN1o-4" value="" style="endArrow=classic;html=1;rounded=0;fontSize=12;startSize=8;endSize=8;curved=1;" edge="1" parent="3XikPz8lAOBjo_jehN1o-25">
          <mxGeometry width="50" height="50" relative="1" as="geometry">
            <mxPoint x="35" as="sourcePoint" />
            <mxPoint x="34.94" y="90" as="targetPoint" />
          </mxGeometry>
        </mxCell>
        <mxCell id="3XikPz8lAOBjo_jehN1o-101" value="&amp;nbsp; &amp;nbsp; &amp;nbsp;&lt;div&gt;&amp;nbsp; &amp;nbsp; &amp;nbsp; &amp;nbsp;&amp;nbsp;&lt;/div&gt;" style="edgeLabel;html=1;align=center;verticalAlign=middle;resizable=0;points=[];fontSize=12;" vertex="1" connectable="0" parent="3XikPz8lAOBjo_jehN1o-4">
          <mxGeometry x="-0.8945" y="-2" relative="1" as="geometry">
            <mxPoint as="offset" />
          </mxGeometry>
        </mxCell>
        <mxCell id="3XikPz8lAOBjo_jehN1o-7" value="" style="endArrow=classic;html=1;rounded=0;fontSize=12;startSize=8;endSize=8;curved=1;entryX=0.5;entryY=1;entryDx=0;entryDy=0;" edge="1" parent="3XikPz8lAOBjo_jehN1o-25">
          <mxGeometry width="50" height="50" relative="1" as="geometry">
            <mxPoint y="30" as="sourcePoint" />
            <mxPoint x="35" y="30" as="targetPoint" />
          </mxGeometry>
        </mxCell>
        <mxCell id="3XikPz8lAOBjo_jehN1o-12" value="" style="endArrow=classic;html=1;rounded=0;fontSize=12;startSize=8;endSize=8;curved=1;" edge="1" parent="3XikPz8lAOBjo_jehN1o-25">
          <mxGeometry width="50" height="50" relative="1" as="geometry">
            <mxPoint x="70" y="30" as="sourcePoint" />
            <mxPoint x="35" y="30" as="targetPoint" />
          </mxGeometry>
        </mxCell>
        <mxCell id="3XikPz8lAOBjo_jehN1o-102" value="&lt;font style=&quot;font-size: 7px;&quot;&gt;Subnet: 10.12.42.0/24&lt;/font&gt;" style="text;strokeColor=none;fillColor=none;html=1;align=left;verticalAlign=middle;whiteSpace=wrap;rounded=0;fontSize=16;" vertex="1" parent="3XikPz8lAOBjo_jehN1o-26">
          <mxGeometry x="140" y="20" width="80" height="60" as="geometry" />
        </mxCell>
        <mxCell id="3XikPz8lAOBjo_jehN1o-28" value="10.12.42.1" style="text;html=1;align=center;verticalAlign=middle;whiteSpace=wrap;rounded=0;" vertex="1" parent="3XikPz8lAOBjo_jehN1o-31">
          <mxGeometry y="220" width="60" height="30" as="geometry" />
        </mxCell>
        <mxCell id="3XikPz8lAOBjo_jehN1o-29" value="10.12.42.42" style="text;html=1;align=center;verticalAlign=middle;whiteSpace=wrap;rounded=0;" vertex="1" parent="3XikPz8lAOBjo_jehN1o-31">
          <mxGeometry x="95.01" y="220" width="60" height="30" as="geometry" />
        </mxCell>
        <mxCell id="3XikPz8lAOBjo_jehN1o-30" value="10.12.42.111" style="text;html=1;align=center;verticalAlign=middle;whiteSpace=wrap;rounded=0;" vertex="1" parent="3XikPz8lAOBjo_jehN1o-31">
          <mxGeometry x="190" y="220" width="60" height="30" as="geometry" />
        </mxCell>
        <mxCell id="3XikPz8lAOBjo_jehN1o-47" value="&lt;div style=&quot;line-height: 70%;&quot;&gt;&lt;font style=&quot;font-size: 6px; line-height: 70%;&quot;&gt;Linux 2.6.9 - 2.6.33 (L&lt;/font&gt;&lt;span style=&quot;font-size: 6px; background-color: transparent; color: light-dark(rgb(0, 0, 0), rgb(255, 255, 255)); line-height: 70%;&quot;&gt;inux)&lt;/span&gt;&lt;/div&gt;" style="text;html=1;align=center;verticalAlign=middle;whiteSpace=wrap;rounded=0;" vertex="1" parent="3XikPz8lAOBjo_jehN1o-31">
          <mxGeometry y="230" width="60" height="50" as="geometry" />
        </mxCell>
        <mxCell id="3XikPz8lAOBjo_jehN1o-48" value="&lt;div style=&quot;line-height: 70%;&quot;&gt;&lt;span style=&quot;font-size: 6px; line-height: 70%;&quot;&gt;Linux 4.15 - 5.8&amp;nbsp;&lt;/span&gt;&lt;/div&gt;&lt;div style=&quot;line-height: 70%;&quot;&gt;&lt;span style=&quot;font-size: 6px; background-color: transparent; color: light-dark(rgb(0, 0, 0), rgb(255, 255, 255)); line-height: 70%;&quot;&gt;(Linux)&lt;/span&gt;&lt;/div&gt;" style="text;html=1;align=center;verticalAlign=middle;whiteSpace=wrap;rounded=0;" vertex="1" parent="3XikPz8lAOBjo_jehN1o-31">
          <mxGeometry x="95" y="240" width="60" height="30" as="geometry" />
        </mxCell>
        <mxCell id="3XikPz8lAOBjo_jehN1o-79" value="&lt;b style=&quot;color: rgb(42, 105, 187); font-size: 7px;&quot;&gt;21: FTP&lt;/b&gt;" style="text;html=1;align=center;verticalAlign=middle;whiteSpace=wrap;rounded=0;strokeWidth=3;" vertex="1" parent="3XikPz8lAOBjo_jehN1o-31">
          <mxGeometry x="92.12" y="260" width="67.88" height="30" as="geometry" />
        </mxCell>
        <mxCell id="3XikPz8lAOBjo_jehN1o-104" value="&lt;div style=&quot;line-height: 70%;&quot;&gt;&lt;b style=&quot;forced-color-adjust: none; font-family: Helvetica; font-style: normal; font-variant-ligatures: normal; font-variant-caps: normal; letter-spacing: normal; orphans: 2; text-align: center; text-indent: 0px; text-transform: none; widows: 2; word-spacing: 0px; -webkit-text-stroke-width: 0px; white-space: normal; background-color: rgb(251, 251, 251); text-decoration-thickness: initial; text-decoration-style: initial; text-decoration-color: initial; color: light-dark(rgb(42, 105, 187), rgb(106, 160, 231)); font-size: 7px; line-height: 70%;&quot;&gt;21: FTP&lt;/b&gt;&lt;div&gt;&lt;b style=&quot;forced-color-adjust: none; font-family: Helvetica; font-style: normal; font-variant-ligatures: normal; font-variant-caps: normal; letter-spacing: normal; orphans: 2; text-align: center; text-indent: 0px; text-transform: none; widows: 2; word-spacing: 0px; -webkit-text-stroke-width: 0px; white-space: normal; background-color: rgb(251, 251, 251); text-decoration-thickness: initial; text-decoration-style: initial; text-decoration-color: initial; color: light-dark(rgb(42, 105, 187), rgb(106, 160, 231)); font-size: 7px; line-height: 70%;&quot;&gt;22: SSH&lt;/b&gt;&lt;/div&gt;&lt;div&gt;&lt;b style=&quot;forced-color-adjust: none; font-family: Helvetica; font-style: normal; font-variant-ligatures: normal; font-variant-caps: normal; letter-spacing: normal; orphans: 2; text-align: center; text-indent: 0px; text-transform: none; widows: 2; word-spacing: 0px; -webkit-text-stroke-width: 0px; white-space: normal; background-color: rgb(251, 251, 251); text-decoration-thickness: initial; text-decoration-style: initial; text-decoration-color: initial; color: light-dark(rgb(42, 105, 187), rgb(106, 160, 231)); font-size: 7px; line-height: 70%;&quot;&gt;23: Telnet&lt;/b&gt;&lt;/div&gt;&lt;div&gt;&lt;b style=&quot;forced-color-adjust: none; font-family: Helvetica; font-style: normal; font-variant-ligatures: normal; font-variant-caps: normal; letter-spacing: normal; orphans: 2; text-align: center; text-indent: 0px; text-transform: none; widows: 2; word-spacing: 0px; -webkit-text-stroke-width: 0px; white-space: normal; background-color: rgb(251, 251, 251); text-decoration-thickness: initial; text-decoration-style: initial; text-decoration-color: initial; color: light-dark(rgb(42, 105, 187), rgb(106, 160, 231)); font-size: 7px; line-height: 70%;&quot;&gt;25: SMTP&lt;/b&gt;&lt;/div&gt;&lt;div&gt;&lt;b style=&quot;forced-color-adjust: none; font-family: Helvetica; font-style: normal; font-variant-ligatures: normal; font-variant-caps: normal; letter-spacing: normal; orphans: 2; text-align: center; text-indent: 0px; text-transform: none; widows: 2; word-spacing: 0px; -webkit-text-stroke-width: 0px; white-space: normal; background-color: rgb(251, 251, 251); text-decoration-thickness: initial; text-decoration-style: initial; text-decoration-color: initial; color: light-dark(rgb(42, 105, 187), rgb(106, 160, 231)); font-size: 7px; line-height: 70%;&quot;&gt;53: Domain (DNS)&lt;/b&gt;&lt;/div&gt;&lt;div&gt;&lt;b style=&quot;forced-color-adjust: none; font-family: Helvetica; font-style: normal; font-variant-ligatures: normal; font-variant-caps: normal; letter-spacing: normal; orphans: 2; text-align: center; text-indent: 0px; text-transform: none; widows: 2; word-spacing: 0px; -webkit-text-stroke-width: 0px; white-space: normal; background-color: rgb(251, 251, 251); text-decoration-thickness: initial; text-decoration-style: initial; text-decoration-color: initial; color: light-dark(rgb(42, 105, 187), rgb(106, 160, 231)); font-size: 7px; line-height: 70%;&quot;&gt;80: HTTP&lt;/b&gt;&lt;/div&gt;&lt;div&gt;&lt;b style=&quot;text-align: center; background-color: rgb(251, 251, 251); color: light-dark(rgb(42, 105, 187), rgb(106, 160, 231)); font-size: 7px; line-height: 70%;&quot;&gt;139: netbios-ssn&lt;/b&gt;&lt;/div&gt;&lt;div&gt;&lt;b style=&quot;forced-color-adjust: none; font-family: Helvetica; font-style: normal; font-variant-ligatures: normal; font-variant-caps: normal; letter-spacing: normal; orphans: 2; text-align: center; text-indent: 0px; text-transform: none; widows: 2; word-spacing: 0px; -webkit-text-stroke-width: 0px; white-space: normal; background-color: rgb(251, 251, 251); text-decoration-thickness: initial; text-decoration-style: initial; text-decoration-color: initial; color: light-dark(rgb(42, 105, 187), rgb(106, 160, 231)); font-size: 7px; line-height: 70%;&quot;&gt;445: microsoft-ds&lt;/b&gt;&lt;/div&gt;&lt;div&gt;&lt;b style=&quot;forced-color-adjust: none; font-family: Helvetica; font-style: normal; font-variant-ligatures: normal; font-variant-caps: normal; letter-spacing: normal; orphans: 2; text-align: center; text-indent: 0px; text-transform: none; widows: 2; word-spacing: 0px; -webkit-text-stroke-width: 0px; white-space: normal; background-color: rgb(251, 251, 251); text-decoration-thickness: initial; text-decoration-style: initial; text-decoration-color: initial; color: light-dark(rgb(42, 105, 187), rgb(106, 160, 231)); font-size: 7px; line-height: 70%;&quot;&gt;512: exec&lt;/b&gt;&lt;/div&gt;&lt;div&gt;&lt;b style=&quot;forced-color-adjust: none; font-family: Helvetica; font-style: normal; font-variant-ligatures: normal; font-variant-caps: normal; letter-spacing: normal; orphans: 2; text-align: center; text-indent: 0px; text-transform: none; widows: 2; word-spacing: 0px; -webkit-text-stroke-width: 0px; white-space: normal; background-color: rgb(251, 251, 251); text-decoration-thickness: initial; text-decoration-style: initial; text-decoration-color: initial; color: light-dark(rgb(42, 105, 187), rgb(106, 160, 231)); font-size: 7px; line-height: 70%;&quot;&gt;513: login&lt;/b&gt;&lt;/div&gt;&lt;div&gt;&lt;b style=&quot;forced-color-adjust: none; font-family: Helvetica; font-style: normal; font-variant-ligatures: normal; font-variant-caps: normal; letter-spacing: normal; orphans: 2; text-align: center; text-indent: 0px; text-transform: none; widows: 2; word-spacing: 0px; -webkit-text-stroke-width: 0px; white-space: normal; background-color: rgb(251, 251, 251); text-decoration-thickness: initial; text-decoration-style: initial; text-decoration-color: initial; color: light-dark(rgb(42, 105, 187), rgb(106, 160, 231)); font-size: 7px; line-height: 70%;&quot;&gt;514: shell&lt;/b&gt;&lt;/div&gt;&lt;div&gt;&lt;b style=&quot;forced-color-adjust: none; font-family: Helvetica; font-style: normal; font-variant-ligatures: normal; font-variant-caps: normal; letter-spacing: normal; orphans: 2; text-align: center; text-indent: 0px; text-transform: none; widows: 2; word-spacing: 0px; -webkit-text-stroke-width: 0px; white-space: normal; background-color: rgb(251, 251, 251); text-decoration-thickness: initial; text-decoration-style: initial; text-decoration-color: initial; color: light-dark(rgb(42, 105, 187), rgb(106, 160, 231)); font-size: 7px; line-height: 70%;&quot;&gt;2049:&amp;nbsp;nfs&lt;/b&gt;&lt;/div&gt;&lt;div&gt;&lt;b style=&quot;font-size: 7px; color: rgb(42, 105, 187); text-align: center; background-color: transparent;&quot;&gt;3306: mysq&lt;/b&gt;&lt;b style=&quot;background-color: transparent; font-size: 7px; color: rgb(42, 105, 187); text-align: center;&quot;&gt;l&lt;/b&gt;&lt;/div&gt;&lt;div&gt;&lt;b style=&quot;font-size: 7px; color: rgb(42, 105, 187); text-align: center; background-color: transparent;&quot;&gt;3632: distccd&lt;/b&gt;&lt;/div&gt;&lt;div&gt;&lt;span style=&quot;text-align: center; background-color: transparent;&quot;&gt;&lt;font color=&quot;#2a69bb&quot;&gt;&lt;span style=&quot;font-size: 7px;&quot;&gt;&lt;b&gt;5432: postgresql&lt;/b&gt;&lt;/span&gt;&lt;/font&gt;&lt;/span&gt;&lt;/div&gt;&lt;div&gt;&lt;span style=&quot;text-align: center; background-color: transparent;&quot;&gt;&lt;font color=&quot;#2a69bb&quot;&gt;&lt;span style=&quot;font-size: 7px;&quot;&gt;&lt;b&gt;5900: vnc&lt;/b&gt;&lt;/span&gt;&lt;/font&gt;&lt;/span&gt;&lt;/div&gt;&lt;div&gt;&lt;span style=&quot;text-align: center; background-color: transparent;&quot;&gt;&lt;font color=&quot;#2a69bb&quot;&gt;&lt;span style=&quot;font-size: 7px;&quot;&gt;&lt;b&gt;6667: irc&lt;/b&gt;&lt;/span&gt;&lt;/font&gt;&lt;/span&gt;&lt;/div&gt;&lt;div&gt;&lt;span style=&quot;text-align: center; background-color: transparent; color: light-dark(rgb(0, 0, 0), rgb(255, 255, 255)); font-size: 7px;&quot;&gt;&lt;font color=&quot;#2a69bb&quot;&gt;&lt;b&gt;8009: ajp13&lt;/b&gt;&lt;/font&gt;&lt;/span&gt;&lt;/div&gt;&lt;div&gt;&lt;span style=&quot;text-align: center; background-color: transparent;&quot;&gt;&lt;font color=&quot;#2a69bb&quot;&gt;&lt;span style=&quot;font-size: 7px;&quot;&gt;&lt;b&gt;8180: unkown&lt;/b&gt;&lt;/span&gt;&lt;/font&gt;&lt;/span&gt;&lt;/div&gt;&lt;/div&gt;" style="text;whiteSpace=wrap;html=1;" vertex="1" parent="3XikPz8lAOBjo_jehN1o-31">
          <mxGeometry x="10" y="260" width="100" height="220" as="geometry" />
        </mxCell>
        <mxCell id="3XikPz8lAOBjo_jehN1o-63" value="&lt;div style=&quot;line-height: 70%;&quot;&gt;&lt;span style=&quot;background-color: light-dark(rgb(251, 251, 251), rgb(21, 21, 21)); color: light-dark(rgb(0, 0, 0), rgb(237, 237, 237)); font-size: 6px;&quot;&gt;&lt;br&gt;&lt;/span&gt;&lt;/div&gt;&lt;div style=&quot;line-height: 70%;&quot;&gt;&lt;span style=&quot;background-color: light-dark(rgb(251, 251, 251), rgb(21, 21, 21)); color: light-dark(rgb(0, 0, 0), rgb(237, 237, 237)); font-size: 6px;&quot;&gt;Linux 4.15 - 5.8&lt;/span&gt;&lt;/div&gt;&lt;div style=&quot;line-height: 70%;&quot;&gt;&lt;div&gt;&lt;span style=&quot;color: rgb(0, 0, 0); font-family: Helvetica; font-size: 6px; font-style: normal; font-variant-ligatures: normal; font-variant-caps: normal; font-weight: 400; letter-spacing: normal; orphans: 2; text-indent: 0px; text-transform: none; widows: 2; word-spacing: 0px; -webkit-text-stroke-width: 0px; white-space: normal; background-color: rgb(251, 251, 251); text-decoration-thickness: initial; text-decoration-style: initial; text-decoration-color: initial; float: none; line-height: 70%; display: inline !important;&quot;&gt;(Unix)&lt;/span&gt;&lt;/div&gt;&lt;/div&gt;" style="text;whiteSpace=wrap;html=1;align=center;" vertex="1" parent="3XikPz8lAOBjo_jehN1o-64">
          <mxGeometry x="190" y="230" width="60" height="40" as="geometry" />
        </mxCell>
        <mxCell id="3XikPz8lAOBjo_jehN1o-97" value="&lt;div style=&quot;text-align: center;&quot;&gt;&lt;span style=&quot;background-color: transparent; font-size: 7px;&quot;&gt;&lt;font color=&quot;#2a69bb&quot;&gt;&lt;b&gt;22: SSH&lt;/b&gt;&lt;/font&gt;&lt;/span&gt;&lt;/div&gt;" style="text;whiteSpace=wrap;html=1;" vertex="1" parent="3XikPz8lAOBjo_jehN1o-64">
          <mxGeometry x="205" y="260" width="60" height="40" as="geometry" />
        </mxCell>
        <mxCell id="3XikPz8lAOBjo_jehN1o-22" value="" style="group" vertex="1" connectable="0" parent="1">
          <mxGeometry x="380.01" y="110" width="90" height="130" as="geometry" />
        </mxCell>
        <mxCell id="3XikPz8lAOBjo_jehN1o-2" value="" style="shape=mxgraph.cisco.routers.wireless_router;html=1;pointerEvents=1;dashed=0;fillColor=#036897;strokeColor=#ffffff;strokeWidth=2;verticalLabelPosition=bottom;verticalAlign=top;align=center;outlineConnect=0;" vertex="1" parent="3XikPz8lAOBjo_jehN1o-22">
          <mxGeometry width="90" height="80" as="geometry" />
        </mxCell>
        <mxCell id="3XikPz8lAOBjo_jehN1o-3" value="router" style="text;strokeColor=none;fillColor=none;html=1;align=center;verticalAlign=middle;whiteSpace=wrap;rounded=0;fontSize=16;" vertex="1" parent="3XikPz8lAOBjo_jehN1o-22">
          <mxGeometry x="15" y="80" width="60" height="30" as="geometry" />
        </mxCell>
        <mxCell id="3XikPz8lAOBjo_jehN1o-6" style="edgeStyle=none;curved=1;rounded=0;orthogonalLoop=1;jettySize=auto;html=1;entryX=0.5;entryY=1;entryDx=0;entryDy=0;fontSize=12;startSize=8;endSize=8;" edge="1" parent="3XikPz8lAOBjo_jehN1o-22" source="3XikPz8lAOBjo_jehN1o-3" target="3XikPz8lAOBjo_jehN1o-3">
          <mxGeometry relative="1" as="geometry" />
        </mxCell>
        <mxCell id="3XikPz8lAOBjo_jehN1o-27" value="10.12.42.0" style="text;html=1;align=center;verticalAlign=middle;whiteSpace=wrap;rounded=0;" vertex="1" parent="3XikPz8lAOBjo_jehN1o-22">
          <mxGeometry x="15" y="100" width="60" height="30" as="geometry" />
        </mxCell>
      </root>
    </mxGraphModel>
  </diagram>
</mxfile>
